<svg id="Layer_1" data-name="Layer 1" xmlns="http://www.w3.org/2000/svg" viewBox="0 0 488 488"><title>SC </title><circle cx="244" cy="244" r="244" style="fill:#231f20"/><path d="M682.66,411.36l-30.91,18.32q-8.67-15-16.52-19.62-8.18-5.23-21.1-5.23-15.86,0-26.33,9a27.91,27.91,0,0,0-10.47,22.26q0,18.49,27.47,29.78L630,476.17q30.74,12.44,45,30.36t14.23,43.94q0,34.86-23.22,57.61Q642.59,631,607.93,631q-32.87,0-54.29-19.55-21.1-19.53-26.33-54.86l38.59-8.5q2.61,22.24,9.16,30.74,11.77,16.35,34.34,16.35,17.82,0,29.6-11.93T650.77,553a42.43,42.43,0,0,0-2-13.48,34.27,34.27,0,0,0-6.38-11.28,51,51,0,0,0-11.2-9.64A108.28,108.28,0,0,0,614.79,510L590.43,499.9q-51.84-21.9-51.84-64.06,0-28.43,21.75-47.55Q582.08,369,614.47,369,658.13,369,682.66,411.36Z" transform="translate(-456 -256)" style="fill:#fff"/><path d="M872.7,387.41v45.06q-33-27.63-68.36-27.64-38.92,0-65.58,28-26.82,27.8-26.82,68,0,39.74,26.82,67t65.74,27.31q20.11,0,34.18-6.54A98.51,98.51,0,0,0,855,579.81,192.38,192.38,0,0,0,872.7,566.4v46Q840,631,804,631q-54.13,0-92.39-37.78-38.11-38.1-38.1-91.9,0-48.24,31.89-86Q744.65,369,807,369,841,369,872.7,387.41Z" transform="translate(-456 -256)" style="fill:#fff"/></svg>