<svg data-name="Layer 1" xmlns="http://www.w3.org/2000/svg" viewBox="0 0 488 488"><title>SC</title><circle cx="244" cy="244" r="244" fill="#231f20"/><path d="M226.66 155.36l-30.91 18.32q-8.67-15-16.52-19.62-8.18-5.23-21.1-5.23-15.86 0-26.33 9a27.91 27.91 0 0 0-10.47 22.26q0 18.49 27.47 29.78l25.2 10.3q30.74 12.44 45 30.36t14.23 43.94q0 34.86-23.22 57.61Q186.59 375 151.93 375q-32.87 0-54.29-19.55-21.1-19.53-26.33-54.86l38.59-8.5q2.61 22.24 9.16 30.74 11.77 16.35 34.34 16.35 17.82 0 29.6-11.93T194.77 297a42.43 42.43 0 0 0-2-13.48 34.27 34.27 0 0 0-6.38-11.28 51 51 0 0 0-11.2-9.64 108.28 108.28 0 0 0-16.4-8.6l-24.36-10.1Q82.59 222 82.59 179.84q0-28.43 21.75-47.55Q126.08 113 158.47 113q43.66 0 68.19 42.36z" fill="#fff"/><path d="M416.7 131.41v45.06q-33-27.63-68.36-27.64-38.92 0-65.58 28-26.82 27.8-26.82 68 0 39.74 26.82 67t65.74 27.31q20.11 0 34.18-6.54a98.51 98.51 0 0 0 16.32-8.79 192.38 192.38 0 0 0 17.7-13.41v46Q384 375 348 375q-54.13 0-92.39-37.78-38.11-38.1-38.1-91.9 0-48.24 31.89-86Q288.65 113 351 113q34 0 65.7 18.41z" fill="#fff"/></svg>